[2024-12-02T23:20:45.364Z] Server log cleared for new stream
[2024-12-02T23:20:45.366Z] Cleared previous messages
[2024-12-02T23:20:45.367Z] Starting stream to: rtmp://localhost:1935/live/test
[2024-12-02T23:20:45.368Z] Using font: /System/Library/Fonts/Helvetica.ttc
[2024-12-02T23:20:45.369Z] FFmpeg command: ffmpeg -hide_banner -stream_loop -1 -i /Users/mac/project/fbstream/fbstream3 0.1.3 Dev/media/sound.mp3 -stream_loop -1 -i https://cdnamd-hls-globecast.akamaized.net/live/ramdisk/2m_monde/hls_video_ts_tuhawxpiemz257adfc/2m_monde.m3u8 -hide_banner -filter_complex [1:v]scale=1920:1080:force_original_aspect_ratio=decrease,pad=1920:1080:(ow-iw)/2:(oh-ih)/2[scaled];[scaled]drawtext=textfile='/Users/mac/project/fbstream/fbstream3\ 0.1.3\ Dev/messages.txt':fontfile='/System/Library/Fonts/Helvetica.ttc':fontsize=70:fontcolor=#ffffff:reload=1:x='if(lte(mod(t*200\,2*(W-tw))\,W-tw)\,mod(t*200\,W-tw)\,2*(W-tw)-mod(t*200\,2*(W-tw)))':y='if(lte(mod(t*100\,2*(H-th))\,H-th)\,mod(t*100\,H-th)\,2*(H-th)-mod(t*100\,2*(H-th)))'[withtext];[withtext]null[v] -map [v] -map 0:a:0 -c:v libx264 -preset ultrafast -g 60 -b:v 4000k -maxrate 4500k -bufsize 8000k -pix_fmt yuv420p -c:a aac -b:a 128k -ac 2 -ar 44100 -filter:a aresample=44100 -strict experimental -f flv rtmp://localhost:1935/live/test
[2024-12-02T23:20:45.375Z] Streaming started successfully
[2024-12-02T23:20:45.578Z] FFmpeg stderr: Input #0, mp3, from '/Users/mac/project/fbstream/fbstream3 0.1.3 Dev/media/sound.mp3':
  Metadata:
    major_brand     : dash
    minor_version   : 0
    compatible_brands: iso6mp41
    encoder         : Lavf58.76.100

[2024-12-02T23:20:45.579Z] FFmpeg stderr:   Duration: 00:00:28.32, start: 0.025057, bitrate: 128 kb/s
  Stream #0:0: Audio: mp3 (mp3float), 44100 Hz, stereo, fltp, 128 kb/s
      Metadata:
        encoder         : Lavc58.13

[2024-12-02T23:20:46.001Z] FFmpeg stderr: mime type is not rfc8216 compliant

[2024-12-02T23:20:46.001Z] FFmpeg stderr: [hls @ 0x150725dc0] Skip ('#EXT-X-VERSION:3')
[hls @ 0x150725dc0] Opening 'https://cdnamd-hls-globecast.akamaized.net/live/ramdisk/2m_monde/hls_video_ts_tuhawxpiemz257adfc/2m_monde-avc1_400000=8-mp4a_130400_qad=1.m3u8' for reading

[2024-12-02T23:20:46.405Z] FFmpeg stderr: [hls @ 0x150725dc0] Skip ('#EXT-X-VERSION:3')
[hls @ 0x150725dc0] Skip ('#EXT-X-INDEPENDENT-SEGMENTS')
[hls @ 0x150725dc0] Skip ('#EXT-X-PROGRAM-DATE-TIME:2024-12-02T17:20:43.107400Z')

[2024-12-02T23:20:46.780Z] FFmpeg stderr: [https @ 0x140815600] Opening 'https://cdnamd-hls-globecast.akamaized.net/live/ramdisk/2m_monde/hls_video_ts_tuhawxpiemz257adfc/2m_monde-avc1_1000000=9-mp4a_130400_qad=1.m3u8' for reading

[2024-12-02T23:20:46.933Z] FFmpeg stderr: [hls @ 0x150725dc0] Skip ('#EXT-X-VERSION:3')
[hls @ 0x150725dc0] Skip ('#EXT-X-INDEPENDENT-SEGMENTS')
[hls @ 0x150725dc0] Skip ('#EXT-X-PROGRAM-DATE-TIME:2024-12-02T17:20:43.107400Z')

[2024-12-02T23:20:47.369Z] FFmpeg stderr: [https @ 0x140815600] Opening 'https://cdnamd-hls-globecast.akamaized.net/live/ramdisk/2m_monde/hls_video_ts_tuhawxpiemz257adfc/2m_monde-avc1_1500000=10-mp4a_130400_qad=1.m3u8' for reading

[2024-12-02T23:20:47.461Z] FFmpeg stderr: [hls @ 0x150725dc0] Skip ('#EXT-X-VERSION:3')
[hls @ 0x150725dc0] Skip ('#EXT-X-INDEPENDENT-SEGMENTS')
[hls @ 0x150725dc0] Skip ('#EXT-X-PROGRAM-DATE-TIME:2024-12-02T17:20:37.107388Z')

[2024-12-02T23:20:47.859Z] FFmpeg stderr: [hls @ 0x150725dc0] Opening 'https://cdnamd-hls-globecast.akamaized.net/live/ramdisk/2m_monde/hls_video_ts_tuhawxpiemz257adfc/2m_monde-avc1_400000=8-mp4a_130400_qad=1-begin=3131112251007888-dur=60001223-seq=52185205.ts' for reading

[2024-12-02T23:20:48.172Z] FFmpeg stderr: [hls @ 0x150725dc0] Opening 'https://cdnamd-hls-globecast.akamaized.net/live/ramdisk/2m_monde/hls_video_ts_tuhawxpiemz257adfc/2m_monde-avc1_400000=8-mp4a_130400_qad=1-begin=3131112311009111-dur=60001111-seq=52185206.ts' for reading

[2024-12-02T23:20:48.565Z] FFmpeg stderr: [hls @ 0x150725dc0] Opening 'https://cdnamd-hls-globecast.akamaized.net/live/ramdisk/2m_monde/hls_video_ts_tuhawxpiemz257adfc/2m_monde-avc1_1000000=9-mp4a_130400_qad=1-begin=3131112251007888-dur=60001223-seq=52185205.ts' for reading

[2024-12-02T23:20:48.877Z] FFmpeg stderr: [hls @ 0x150725dc0] Opening 'https://cdnamd-hls-globecast.akamaized.net/live/ramdisk/2m_monde/hls_video_ts_tuhawxpiemz257adfc/2m_monde-avc1_1000000=9-mp4a_130400_qad=1-begin=3131112311009111-dur=60001111-seq=52185206.ts' for reading

[2024-12-02T23:20:49.238Z] FFmpeg stderr: [hls @ 0x150725dc0] Opening 'https://cdnamd-hls-globecast.akamaized.net/live/ramdisk/2m_monde/hls_video_ts_tuhawxpiemz257adfc/2m_monde-avc1_1500000=10-mp4a_130400_qad=1-begin=3131112251007888-dur=60001223-seq=52185205.ts' for reading

[2024-12-02T23:20:49.585Z] FFmpeg stderr: [hls @ 0x150725dc0] Opening 'https://cdnamd-hls-globecast.akamaized.net/live/ramdisk/2m_monde/hls_video_ts_tuhawxpiemz257adfc/2m_monde-avc1_1500000=10-mp4a_130400_qad=1-begin=3131112311009111-dur=60001111-seq=52185206.ts' for reading

[2024-12-02T23:20:50.193Z] FFmpeg stderr: [h264 @ 0x107d23160] Increasing reorder buffer to 2

[2024-12-02T23:20:50.206Z] FFmpeg stderr: Input #1, hls, from 'https://cdnamd-hls-globecast.akamaized.net/live/ramdisk/2m_monde/hls_video_ts_tuhawxpiemz257adfc/2m_monde.m3u8':
  Duration: N/A, start: 55832.081233, bitrate: N/A
  Program 0 
    Metadata:
      variant_bitrate : 611273

[2024-12-02T23:20:50.206Z] FFmpeg stderr:   Stream #1:0: Video: h264 (Constrained Baseline) ([27][0][0][0] / 0x001B), yuv420p(tv, bt709), 384x216 [SAR 1:1 DAR 16:9], 25 fps, 25 tbr, 90k tbn
      Metadata:
        variant_bitrate : 611273
  Stream #1:1(qad): Audio: aac (LC) ([15][0][0][0] / 0x000F), 48000 Hz, stereo, fltp
      Metadata:
        variant_bitrate : 611273
  Program 1 
    Metadata:
      variant_bitrate : 1310873
  Stream #1:2: Video: h264 (Constrained Baseline) ([27][0][0][0] / 0x001B), yuv420p(tv, bt709), 640x360 [SAR 1:1 DAR 16:9], 25 fps, 25 tbr, 90k tbn
      Metadata:
        variant_bitrate : 1310873
  Stream #1:3(qad): Audio: aac (LC) ([15][0][0][0] / 0x000F), 48000 Hz, stereo, fltp
      Metadata:
        variant_bitrate : 1310873
  Program 2 
    Metadata:
      variant_bitrate : 1893873
  Stream #1:4: Video: h264 (Main) ([27][0][0][0] / 0x001B), yuv420p(tv, bt709), 640x360 [SAR 1:1 DAR 16:9], 25 fps, 25 tbr, 90k tbn
      Metadata:
        variant_bitrate : 1893873
  Stream #1:5(qad): Audio: aac (LC) ([15][0][0][0] / 0x000F), 48000 Hz, stereo, fltp
      Metadata:
        variant_bitrate : 1893873

[2024-12-02T23:20:50.244Z] FFmpeg stderr: Stream mapping:
  Stream #1:0 (h264) -> scale:default
  null:default -> Stream #0:0 (libx264)
  Stream #0:0 -> #0:1 (mp3 (mp3float) -> aac (native))

[2024-12-02T23:20:50.245Z] FFmpeg stderr: Press [q] to stop, [?] for help

[2024-12-02T23:20:50.260Z] FFmpeg stderr: [libx264 @ 0x151261220] using SAR=1/1

[2024-12-02T23:20:50.264Z] FFmpeg stderr: [libx264 @ 0x151261220] using cpu capabilities: ARMv8 NEON

[2024-12-02T23:20:50.266Z] FFmpeg stderr: [libx264 @ 0x151261220] profile Constrained Baseline, level 4.0, 4:2:0, 8-bit

[2024-12-02T23:20:50.266Z] FFmpeg stderr: [libx264 @ 0x151261220] 264 - core 164 r3108 31e19f9 - H.264/MPEG-4 AVC codec - Copyleft 2003-2023 - http://www.videolan.org/x264.html - options: cabac=0 ref=1 deblock=0:0:0 analyse=0:0 me=dia subme=0 psy=1 psy_rd=1.00:0.00 mixed_ref=0 me_range=16 chroma_me=1 trellis=0 8x8dct=0 cqm=0 deadzone=21,11 fast_pskip=1 chroma_qp_offset=0 threads=12 lookahead_threads=2 sliced_threads=0 nr=0 decimate=1 interlaced=0 bluray_compat=0 constrained_intra=0 bframes=0 weightp=0 keyint=60 keyint_min=6 scenecut=0 intra_refresh=0 rc_lookahead=0 rc=abr mbtree=0 bitrate=4000 ratetol=1.0 qcomp=0.60 qpmin=0 qpmax=69 qpstep=4 vbv_maxrate=4500 vbv_bufsize=8000 nal_hrd=none filler=0 ip_ratio=1.40 aq=0
Output #0, flv, to 'rtmp://localhost:1935/live/test':
  Metadata:
    major_brand     : dash
    minor_version   : 0
    compatible_brands: iso6mp41
    encoder         : Lavf61.7.100
  Stream #0:0: Video: h264 ([7][0][0][0] / 0x0007), yuv420p(tv, bt709, progressive), 1920x1080 [SAR 1:1 DAR 16:9], q=2-31, 4000 kb/s, 25 fps, 1k tbn
      Metadata:
        encoder         : Lavc61.19.100 libx264
      Side data:
        cpb: bitrate max/min/avg: 4500000/0/4000000 buffer size: 8000000 vbv_delay: N/A
  Stream #0:1: Audio: aac (LC) ([10][0][0][0] / 0x000A), 44100 Hz, stereo, fltp, 128 kb/s
      Metadata:
        encoder         : Lavc61.19.100 aac

[2024-12-02T23:20:50.749Z] FFmpeg stderr: frame=   34 fps=0.0 q=27.0 size=     783KiB time=00:00:01.36 bitrate=4717.8kbits/s speed=2.69x    
[2024-12-02T23:20:51.269Z] FFmpeg stderr: frame=   73 fps= 72 q=25.0 size=    1506KiB time=00:00:02.92 bitrate=4226.1kbits/s speed= 2.9x    
[2024-12-02T23:20:51.849Z] FFmpeg stderr: frame=   92 fps= 61 q=25.0 size=    1839KiB time=00:00:03.68 bitrate=4093.3kbits/s speed=2.43x    [https @ 0x152810200] Opening 'https://cdnamd-hls-globecast.akamaized.net/live/ramdisk/2m_monde/hls_video_ts_tuhawxpiemz257adfc/2m_monde-avc1_400000=8-mp4a_130400_qad=1-begin=3131112371010222-dur=60001222-seq=52185207.ts' for reading

[2024-12-02T23:20:51.907Z] FFmpeg stderr: [hls @ 0x150725dc0] No longer receiving playlist 1 ('https://cdnamd-hls-globecast.akamaized.net/live/ramdisk/2m_monde/hls_video_ts_tuhawxpiemz257adfc/2m_monde-avc1_1000000=9-mp4a_130400_qad=1.m3u8')
[hls @ 0x150725dc0] No longer receiving playlist 2 ('https://cdnamd-hls-globecast.akamaized.net/live/ramdisk/2m_monde/hls_video_ts_tuhawxpiemz257adfc/2m_monde-avc1_1500000=10-mp4a_130400_qad=1.m3u8')

[2024-12-02T23:20:52.265Z] FFmpeg stderr: frame=  186 fps= 92 q=28.0 size=    3993KiB time=00:00:07.44 bitrate=4396.2kbits/s speed=3.68x    
[2024-12-02T23:20:52.769Z] FFmpeg stderr: frame=  250 fps= 99 q=28.0 size=    5432KiB time=00:00:10.00 bitrate=4449.6kbits/s speed=3.96x    
[2024-12-02T23:20:53.275Z] FFmpeg stderr: frame=  298 fps= 98 q=23.0 size=    6451KiB time=00:00:11.92 bitrate=4433.5kbits/s speed=3.93x    
[2024-12-02T23:20:53.778Z] FFmpeg stderr: frame=  363 fps=103 q=30.0 size=    7780KiB time=00:00:14.52 bitrate=4389.2kbits/s speed=4.11x    
[2024-12-02T23:20:54.008Z] FFmpeg stderr: [https @ 0x140815600] Opening 'https://cdnamd-hls-globecast.akamaized.net/live/ramdisk/2m_monde/hls_video_ts_tuhawxpiemz257adfc/2m_monde-avc1_400000=8-mp4a_130400_qad=1.m3u8' for reading

[2024-12-02T23:20:54.102Z] FFmpeg stderr: [hls @ 0x150725dc0] Skip ('#EXT-X-VERSION:3')
[hls @ 0x150725dc0] Skip ('#EXT-X-INDEPENDENT-SEGMENTS')
[hls @ 0x150725dc0] Skip ('#EXT-X-PROGRAM-DATE-TIME:2024-12-02T17:20:43.107400Z')

[2024-12-02T23:20:54.281Z] FFmpeg stderr: frame=  427 fps=106 q=28.0 size=    9100KiB time=00:00:17.08 bitrate=4364.7kbits/s speed=4.23x    
[2024-12-02T23:20:54.786Z] FFmpeg stderr: frame=  427 fps= 94 q=28.0 size=    9100KiB time=00:00:17.08 bitrate=4364.7kbits/s speed=3.76x    
[2024-12-02T23:20:55.287Z] FFmpeg stderr: frame=  427 fps= 85 q=28.0 size=    9100KiB time=00:00:17.08 bitrate=4364.7kbits/s speed=3.39x    
[2024-12-02T23:20:55.787Z] FFmpeg stderr: frame=  427 fps= 77 q=28.0 size=    9100KiB time=00:00:17.08 bitrate=4364.7kbits/s speed=3.08x    
[2024-12-02T23:20:56.289Z] FFmpeg stderr: frame=  427 fps= 71 q=28.0 size=    9100KiB time=00:00:17.08 bitrate=4364.7kbits/s speed=2.83x    
[2024-12-02T23:20:56.791Z] FFmpeg stderr: frame=  427 fps= 65 q=28.0 size=    9100KiB time=00:00:17.08 bitrate=4364.7kbits/s speed=2.61x    
[2024-12-02T23:20:57.296Z] FFmpeg stderr: frame=  427 fps= 61 q=28.0 size=    9100KiB time=00:00:17.08 bitrate=4364.7kbits/s speed=2.42x    
[2024-12-02T23:20:57.797Z] FFmpeg stderr: frame=  427 fps= 57 q=28.0 size=    9100KiB time=00:00:17.08 bitrate=4364.7kbits/s speed=2.26x    
[2024-12-02T23:20:57.873Z] FFmpeg stderr: [https @ 0x140815600] Opening 'https://cdnamd-hls-globecast.akamaized.net/live/ramdisk/2m_monde/hls_video_ts_tuhawxpiemz257adfc/2m_monde-avc1_400000=8-mp4a_130400_qad=1.m3u8' for reading

[2024-12-02T23:20:57.953Z] FFmpeg stderr: [hls @ 0x150725dc0] Skip ('#EXT-X-VERSION:3')
[hls @ 0x150725dc0] Skip ('#EXT-X-INDEPENDENT-SEGMENTS')
[hls @ 0x150725dc0] Skip ('#EXT-X-PROGRAM-DATE-TIME:2024-12-02T17:20:49.107400Z')

[2024-12-02T23:20:58.212Z] FFmpeg stderr: [https @ 0x152810200] Opening 'https://cdnamd-hls-globecast.akamaized.net/live/ramdisk/2m_monde/hls_video_ts_tuhawxpiemz257adfc/2m_monde-avc1_400000=8-mp4a_130400_qad=1-begin=3131112431011444-dur=60001222-seq=52185208.ts' for reading

[2024-12-02T23:20:58.298Z] FFmpeg stderr: frame=  427 fps= 53 q=28.0 size=    9100KiB time=00:00:17.08 bitrate=4364.7kbits/s speed=2.12x    
[2024-12-02T23:20:58.804Z] FFmpeg stderr: frame=  495 fps= 58 q=30.0 size=   10372KiB time=00:00:19.80 bitrate=4291.3kbits/s speed=2.31x    
[2024-12-02T23:20:59.304Z] FFmpeg stderr: frame=  577 fps= 64 q=28.0 size=   11767KiB time=00:00:23.08 bitrate=4176.5kbits/s speed=2.55x    
[2024-12-02T23:20:59.806Z] FFmpeg stderr: frame=  577 fps= 60 q=28.0 size=   11767KiB time=00:00:23.08 bitrate=4176.5kbits/s speed=2.41x    
[2024-12-02T23:21:00.309Z] FFmpeg stderr: frame=  577 fps= 57 q=28.0 size=   11767KiB time=00:00:23.08 bitrate=4176.5kbits/s speed=2.29x    
[2024-12-02T23:21:00.814Z] FFmpeg stderr: frame=  577 fps= 55 q=28.0 size=   11767KiB time=00:00:23.08 bitrate=4176.5kbits/s speed=2.18x    
[2024-12-02T23:21:01.317Z] FFmpeg stderr: frame=  577 fps= 52 q=28.0 size=   11767KiB time=00:00:23.08 bitrate=4176.5kbits/s speed=2.08x    
[2024-12-02T23:21:01.822Z] FFmpeg stderr: frame=  577 fps= 50 q=28.0 size=   11767KiB time=00:00:23.08 bitrate=4176.5kbits/s speed=1.99x    
[2024-12-02T23:21:02.324Z] FFmpeg stderr: frame=  577 fps= 48 q=28.0 size=   11767KiB time=00:00:23.08 bitrate=4176.5kbits/s speed=1.91x    
[2024-12-02T23:21:02.828Z] FFmpeg stderr: frame=  577 fps= 46 q=28.0 size=   11767KiB time=00:00:23.08 bitrate=4176.5kbits/s speed=1.83x    
[2024-12-02T23:21:03.329Z] FFmpeg stderr: frame=  577 fps= 44 q=28.0 size=   11767KiB time=00:00:23.08 bitrate=4176.5kbits/s speed=1.76x    
[2024-12-02T23:21:03.833Z] FFmpeg stderr: frame=  577 fps= 42 q=28.0 size=   11767KiB time=00:00:23.08 bitrate=4176.5kbits/s speed= 1.7x    
[2024-12-02T23:21:04.258Z] FFmpeg stderr: [https @ 0x140815600] Opening 'https://cdnamd-hls-globecast.akamaized.net/live/ramdisk/2m_monde/hls_video_ts_tuhawxpiemz257adfc/2m_monde-avc1_400000=8-mp4a_130400_qad=1.m3u8' for reading

[2024-12-02T23:21:04.312Z] FFmpeg stderr: [hls @ 0x150725dc0] Skip ('#EXT-X-VERSION:3')
[hls @ 0x150725dc0] Skip ('#EXT-X-INDEPENDENT-SEGMENTS')
[hls @ 0x150725dc0] Skip ('#EXT-X-PROGRAM-DATE-TIME:2024-12-02T17:20:55.107411Z')

[2024-12-02T23:21:04.338Z] FFmpeg stderr: frame=  577 fps= 41 q=28.0 size=   11767KiB time=00:00:23.08 bitrate=4176.5kbits/s speed=1.64x    
[2024-12-02T23:21:04.544Z] FFmpeg stderr: [https @ 0x152810200] Opening 'https://cdnamd-hls-globecast.akamaized.net/live/ramdisk/2m_monde/hls_video_ts_tuhawxpiemz257adfc/2m_monde-avc1_400000=8-mp4a_130400_qad=1-begin=3131112491012666-dur=60001222-seq=52185209.ts' for reading

[2024-12-02T23:21:04.840Z] FFmpeg stderr: frame=  600 fps= 41 q=28.0 size=   12097KiB time=00:00:24.00 bitrate=4129.1kbits/s speed=1.64x    
[2024-12-02T23:21:05.345Z] FFmpeg stderr: frame=  727 fps= 48 q=21.0 size=   14280KiB time=00:00:29.08 bitrate=4022.8kbits/s speed=1.93x    
[2024-12-02T23:21:05.850Z] FFmpeg stderr: frame=  727 fps= 47 q=21.0 size=   14280KiB time=00:00:29.08 bitrate=4022.8kbits/s speed=1.86x    
[2024-12-02T23:21:06.353Z] FFmpeg stderr: frame=  727 fps= 45 q=21.0 size=   14280KiB time=00:00:29.08 bitrate=4022.8kbits/s speed=1.81x    
[2024-12-02T23:21:06.900Z] FFmpeg stderr: frame=  727 fps= 44 q=21.0 size=   14280KiB time=00:00:29.08 bitrate=4022.8kbits/s speed=1.75x    
[2024-12-02T23:21:07.366Z] FFmpeg stderr: frame=  727 fps= 42 q=21.0 size=   14280KiB time=00:00:29.08 bitrate=4022.8kbits/s speed= 1.7x    
[2024-12-02T23:21:07.870Z] FFmpeg stderr: frame=  727 fps= 41 q=21.0 size=   14280KiB time=00:00:29.08 bitrate=4022.8kbits/s speed=1.65x    
[2024-12-02T23:21:08.371Z] FFmpeg stderr: frame=  727 fps= 40 q=21.0 size=   14280KiB time=00:00:29.08 bitrate=4022.8kbits/s speed= 1.6x    
[2024-12-02T23:21:08.872Z] FFmpeg stderr: frame=  727 fps= 39 q=21.0 size=   14280KiB time=00:00:29.08 bitrate=4022.8kbits/s speed=1.56x    
[2024-12-02T23:21:09.372Z] FFmpeg stderr: frame=  727 fps= 38 q=21.0 size=   14280KiB time=00:00:29.08 bitrate=4022.8kbits/s speed=1.52x    
[2024-12-02T23:21:09.873Z] FFmpeg stderr: frame=  727 fps= 37 q=21.0 size=   14280KiB time=00:00:29.08 bitrate=4022.8kbits/s speed=1.48x    
[2024-12-02T23:21:10.378Z] FFmpeg stderr: frame=  727 fps= 36 q=21.0 size=   14280KiB time=00:00:29.08 bitrate=4022.8kbits/s speed=1.44x    
[2024-12-02T23:21:10.575Z] FFmpeg stderr: [https @ 0x140815600] Opening 'https://cdnamd-hls-globecast.akamaized.net/live/ramdisk/2m_monde/hls_video_ts_tuhawxpiemz257adfc/2m_monde-avc1_400000=8-mp4a_130400_qad=1.m3u8' for reading

[2024-12-02T23:21:10.654Z] FFmpeg stderr: [hls @ 0x150725dc0] Skip ('#EXT-X-VERSION:3')
[hls @ 0x150725dc0] Skip ('#EXT-X-INDEPENDENT-SEGMENTS')
[hls @ 0x150725dc0] Skip ('#EXT-X-PROGRAM-DATE-TIME:2024-12-02T17:21:07.107422Z')

[2024-12-02T23:21:10.883Z] FFmpeg stderr: frame=  727 fps= 35 q=21.0 size=   14280KiB time=00:00:29.08 bitrate=4022.8kbits/s speed=1.41x    
[2024-12-02T23:21:10.886Z] FFmpeg stderr: [https @ 0x152810200] Opening 'https://cdnamd-hls-globecast.akamaized.net/live/ramdisk/2m_monde/hls_video_ts_tuhawxpiemz257adfc/2m_monde-avc1_400000=8-mp4a_130400_qad=1-begin=3131112551013888-dur=60001223-seq=52185210.ts' for reading

[2024-12-02T23:21:10.978Z] FFmpeg stderr: [https @ 0x152820600] Opening 'https://cdnamd-hls-globecast.akamaized.net/live/ramdisk/2m_monde/hls_video_ts_tuhawxpiemz257adfc/2m_monde-avc1_400000=8-mp4a_130400_qad=1-begin=3131112611015111-dur=60001111-seq=52185211.ts' for reading

[2024-12-02T23:21:11.385Z] FFmpeg stderr: frame=  727 fps= 34 q=21.0 size=   14280KiB time=00:00:29.08 bitrate=4022.8kbits/s speed=1.38x    
[2024-12-02T23:21:11.890Z] FFmpeg stderr: frame=  802 fps= 37 q=25.0 size=   15822KiB time=00:00:32.08 bitrate=4040.4kbits/s speed=1.48x    
[2024-12-02T23:21:12.392Z] FFmpeg stderr: frame=  878 fps= 40 q=26.0 size=   17403KiB time=00:00:35.12 bitrate=4059.3kbits/s speed=1.59x    
[2024-12-02T23:21:12.895Z] FFmpeg stderr: frame=  937 fps= 41 q=27.0 size=   18561KiB time=00:00:37.48 bitrate=4057.0kbits/s speed=1.65x    
[2024-12-02T23:21:13.428Z] FFmpeg stderr: frame=  992 fps= 43 q=29.0 size=   20150KiB time=00:00:39.68 bitrate=4160.1kbits/s speed=1.71x    
[2024-12-02T23:21:13.912Z] FFmpeg stderr: frame= 1027 fps= 43 q=29.0 size=   21051KiB time=00:00:41.08 bitrate=4198.0kbits/s speed=1.74x    
[2024-12-02T23:21:14.417Z] FFmpeg stderr: frame= 1027 fps= 42 q=29.0 size=   21051KiB time=00:00:41.08 bitrate=4198.0kbits/s speed= 1.7x    
[2024-12-02T23:21:14.920Z] FFmpeg stderr: frame= 1027 fps= 42 q=29.0 size=   21051KiB time=00:00:41.08 bitrate=4198.0kbits/s speed=1.66x    
[2024-12-02T23:21:15.597Z] FFmpeg stderr: frame= 1027 fps= 41 q=29.0 size=   21051KiB time=00:00:41.08 bitrate=4198.0kbits/s speed=1.63x    
[2024-12-02T23:21:15.930Z] FFmpeg stderr: frame= 1027 fps= 40 q=29.0 size=   21051KiB time=00:00:41.08 bitrate=4198.0kbits/s speed= 1.6x    
[2024-12-02T23:21:16.367Z] Stream stopped successfully
[2024-12-02T23:21:16.958Z] FFmpeg stderr: [https @ 0x140815600] Opening 'https://cdnamd-hls-globecast.akamaized.net/live/ramdisk/2m_monde/hls_video_ts_tuhawxpiemz257adfc/2m_monde-avc1_400000=8-mp4a_130400_qad=1.m3u8' for reading

[2024-12-02T23:21:17.055Z] FFmpeg stderr: [hls @ 0x150725dc0] Skip ('#EXT-X-VERSION:3')
[hls @ 0x150725dc0] Skip ('#EXT-X-INDEPENDENT-SEGMENTS')
[hls @ 0x150725dc0] Skip ('#EXT-X-PROGRAM-DATE-TIME:2024-12-02T17:21:07.107422Z')

[2024-12-02T23:21:21.220Z] FFmpeg stderr: [https @ 0x140815600] Opening 'https://cdnamd-hls-globecast.akamaized.net/live/ramdisk/2m_monde/hls_video_ts_tuhawxpiemz257adfc/2m_monde-avc1_400000=8-mp4a_130400_qad=1.m3u8' for reading

[2024-12-02T23:21:21.303Z] FFmpeg stderr: [hls @ 0x150725dc0] Skip ('#EXT-X-VERSION:3')
[hls @ 0x150725dc0] Skip ('#EXT-X-INDEPENDENT-SEGMENTS')
[hls @ 0x150725dc0] Skip ('#EXT-X-PROGRAM-DATE-TIME:2024-12-02T17:21:13.107422Z')

[2024-12-02T23:21:21.548Z] FFmpeg stderr: [https @ 0x152820600] Opening 'https://cdnamd-hls-globecast.akamaized.net/live/ramdisk/2m_monde/hls_video_ts_tuhawxpiemz257adfc/2m_monde-avc1_400000=8-mp4a_130400_qad=1-begin=3131112671016222-dur=60001333-seq=52185212.ts' for reading

[2024-12-02T23:21:21.709Z] FFmpeg stderr: [flv @ 0x1512604b0] Failed to update header with correct duration.
[flv @ 0x1512604b0] Failed to update header with correct filesize.

[2024-12-02T23:21:21.710Z] FFmpeg stderr: [out#0/flv @ 0x151260390] video:20790KiB audio:653KiB subtitle:0KiB other streams:0KiB global headers:0KiB muxing overhead: 0.237146%
frame= 1048 fps= 33 q=-1.0 Lsize=   21494KiB time=00:00:41.81 bitrate=4211.1kbits/s speed=1.33x    

[2024-12-02T23:21:21.712Z] FFmpeg stderr: [libx264 @ 0x151261220] frame I:18    Avg QP:24.39  size: 67046
[libx264 @ 0x151261220] frame P:1030  Avg QP:27.14  size: 19496

[2024-12-02T23:21:21.713Z] FFmpeg stderr: [libx264 @ 0x151261220] mb I  I16..4: 100.0%  0.0%  0.0%
[libx264 @ 0x151261220] mb P  I16..4: 21.8%  0.0%  0.0%  P16..4: 28.9%  0.0%  0.0%  0.0%  0.0%    skip:49.3%
[libx264 @ 0x151261220] coded y,uvDC,uvAC intra: 11.2% 35.7% 5.2% inter: 9.0% 21.1% 0.5%
[libx264 @ 0x151261220] i16 v,h,dc,p: 37% 27% 13% 23%
[libx264 @ 0x151261220] i8c dc,h,v,p: 37% 25% 23% 16%
[libx264 @ 0x151261220] kb/s:4062.58

[2024-12-02T23:21:21.726Z] FFmpeg stderr: [aac @ 0x151262610] Qavg: 1445.473

[2024-12-02T23:21:21.763Z] FFmpeg stderr: Exiting normally, received signal 15.

[2024-12-02T23:21:21.780Z] FFmpeg process exited with code 255
[2024-12-03T08:06:54.886Z] Server started on port 3000
[2024-12-03T08:25:18.146Z] Server started on port 3000
[2024-12-03T08:25:49.132Z] Server started on port 3000
[2024-12-03T08:28:35.504Z] Server started on port 3000
[2024-12-03T12:32:56.226Z] Server started on port 3000
[2024-12-03T13:40:21.064Z] Server started on port 3000
[2024-12-03T13:45:07.398Z] Server started on port 3000
[2024-12-03T13:55:27.648Z] Server started on port 3000
[2024-12-03T13:59:21.083Z] Server started on port 3000
[2024-12-03T14:01:49.226Z] Server started on port 3000
[2024-12-03T14:03:50.842Z] Server started on port 3000
[2024-12-03T14:05:02.814Z] Server started on port 3000
[2024-12-03T14:06:55.705Z] Server started on port 3000
[2024-12-03T14:09:51.817Z] Server started on port 3000
[2024-12-03T14:11:27.622Z] Server started on port 3000
[2024-12-03T14:13:15.424Z] Server started on port 3000
[2024-12-03T14:16:15.519Z] Server started on port 3000
[2024-12-03T14:18:45.622Z] Server started on port 3000
[2024-12-03T14:20:10.073Z] Server started on port 3000
[2024-12-03T14:21:52.143Z] Server started on port 3000
[2024-12-03T14:24:14.893Z] Server started on port 3000
[2024-12-03T14:27:07.440Z] Server started on port 3000
[2024-12-03T14:30:07.163Z] Server started on port 3000
[2024-12-03T14:32:14.643Z] Server started on port 3000
[2024-12-03T14:33:30.769Z] Server started on port 3000
[2024-12-03T14:35:57.771Z] Server started on port 3000
[2024-12-03T14:38:16.736Z] Server started on port 3000
[2024-12-03T14:39:46.075Z] Server started on port 3000
[2024-12-03T14:46:32.034Z] Server started on port 3000
[2024-12-03T14:46:45.794Z] Telegram bot started
[2024-12-03T15:09:19.334Z] Server started on port 3000
